# xmcd
#
# Track frame offsets:
#	150
#	16411
#	28978
#	40400
#	50792
#	59865
#	72714
#	86225
#	98899
#	112626
#	123720
#	135543
#	148170
#	158198
#	172252
#
# Disc length: 2466 seconds
#
# Revision: 5
# Processed by: cddbd v1.5.1PL2 Copyright (c) Steve Scherf et al.
# Submitted via: audiograbber 1.83.01
#
DISCID=ee09a00f
DTITLE=Various Artist - The Best Of Country Music
DYEAR=1999
DGENRE=Country
TTITLE0=Billie Joe Spears - Blanket On The Ground
TTITLE1=Charlie Pride - Crystal Chandeliers
TTITLE2=Patsy Cline - Walkin' After Midnight
TTITLE3=Jim Reeves - He'll have To Go
TTITLE4=Frankie Laine - Rawhide
TTITLE5=Boxcar Willie - Truck Drivin' Man
TTITLE6=Kenny Rogers - Ruby, Don't Take Your Love To Town
TTITLE7=Willie Nelson - To All The Girls I've Loved Before
TTITLE8=Don Williams - You'r My Best Friend
TTITLE9=Don Gibson - Sea Of Heartbreak
TTITLE10=Hank Williams - I'm So Lonesome, I Could Cry
TTITLE11=Slim Whitman - Tennessee Waltz
TTITLE12=Merle Haggard - Mama Tried
TTITLE13=Tammy Wynette - Stand By Your Man
TTITLE14=Johnny Cash - I Walk The Line
EXTD=YEAR: 1999
EXTT0=
EXTT1=
EXTT2=
EXTT3=
EXTT4=
EXTT5=
EXTT6=
EXTT7=
EXTT8=
EXTT9=
EXTT10=
EXTT11=
EXTT12=
EXTT13=
EXTT14=
PLAYORDER=
